<svg xmlns="http://www.w3.org/2000/svg">
    <g>
        <path id="svg_7" fill="#3f3d56" d="m132.813785,632.443659c-0.22949,-0.375 -5.64062,-9.41016 -7.5166,-28.17188c-1.7207,-17.21289 -0.61425,-46.22656 14.43262,-86.69824c28.50586,-76.6709 -6.56934,-138.5332 -6.92773,-139.14941l1.73046,-1.00391c0.09082,0.15625 9.14161,15.92871 14.48829,41.044a179.06122,179.06122 0 0 1 -7.416,99.80664c-28.457,76.54 -7.30078,112.77344 -7.084,113.13086l-1.70704,1.04194z" />
        <circle id="svg_8" fill="#2b2946" r="13" cy="360.922175" cx="121.667305" />
        <circle id="svg_9" fill="#2b2946" r="13" cy="408.922175" cx="162.667305" />
        <circle id="svg_10" fill="#2b2946" r="13" cy="440.922175" cx="134.667305" />
        <circle id="svg_11" fill="#2b2946" r="13" cy="467.922175" cx="168.667305" />
        <circle id="svg_12" fill="#2b2946" r="13" cy="509.922175" cx="124.667305" />
        <path id="svg_13" fill="#3f3d56" d="m140.667305,632.922169s-13,-32 26,-56l-26,56z" />
        <path id="svg_14" fill="#3f3d56" d="m124.679305,632.341709s-5.91642,-34.02934 -51.7085,-33.73768l51.7085,33.73768z" />
        <path id="svg_19" fill="#ffb8b8" d="m506.141761,167.213664l-5.93271,39.48168l-67.80585,45.86247s-35.65047,17.08367 -33.40607,27.69772c2.00065,9.46133 29.51033,8.34147 38.16749,-6.2891l81.06651,-36.85394l27.11218,-53.6743l-39.20155,-16.22453z" />
        <polygon id="svg_20" fill="#ffb8b8" points="506.49713134765625,565.2557201385498 509.49713134765625,607.2557201385498 538.4971313476562,605.2557201385498 533.4971313476562,565.2557201385498 506.49713134765625,565.2557201385498 " />
        <path id="svg_21" fill="#2f2e41" d="m514.497131,594.255534s-4,-15 -8,-14l-6,11s-27,25 -35,26c0,0 -26,8 0,20l30,0s20,-1 24,0s27,1 28,-5s-3,-18 -3,-18s-3.68783,-29.5026 -7.84391,-23.7513a78.52866,78.52866 0 0 1 -7.15609,8.7513l-15,-5z" />
        <polygon id="svg_22" fill="#ffb8b8" points="581.4971313476562,565.7557201385498 584.4971313476562,607.7557201385498 613.4971313476562,605.7557201385498 608.4971313476562,565.7557201385498 581.4971313476562,565.7557201385498 " />
        <path id="svg_23" fill="#2f2e41" d="m589.497131,594.755534s-4,-15 -8,-14l-6,11s-27,25 -35,26c0,0 -26,8 0,20l30,0s20,-2 24,-1s27,1 28,-5s-3,-17 -3,-17s-3.68783,-29.5026 -7.84391,-23.7513a78.52866,78.52866 0 0 1 -7.15609,8.7513l-15,-5z" />
        <path id="svg_24" fill="#2f2e41" d="m467.497131,307.755534l-5,7l0,14l32,119l6,26s0,100 6,100s33,3 33,-3s-2,-142 -2,-142l27,51s12,90 16,91s32,0 34,-6l-6,-57s1,-64 -16,-78c0,0 -3,-17 -6,-24s-8,-11 -5,-16s-4,-60 -4,-60s2,-17 -2,-22s-108,0 -108,0z" />
        <circle id="svg_25" fill="#ffb8b8" r="31" cy="49.755541" cx="531.497131" />
        <path id="svg_26" fill="#ffb8b8" d="m550.997131,68.255534l-2,20l8,7l-51,24c12.563,-21.46356 16.28369,-41.00753 10,-55l35,4z" />
        <path id="svg_27" fill="#d0cde1" d="m515.997131,98.255534s-8,16 2,12l31,-22s34,13 46,28l-10,106l-8,75s5,9 4,10s-2,-1 -1,2s4,0 1,3s-6,0 -3,3s0,4 0,4s-4,-24 -39,-6s-50,23 -76,1l30,-114l2.42232,-42.99624a177.10707,177.10707 0 0 1 7.61071,-42.31482c2.29335,-7.4234 6.2885,-14.71847 12.967,-18.68894l-0.00003,2z" />
        <path id="svg_28" fill="#ffb8b8" d="m569.497131,185.755534l15,37l-35,74s-8,9 -3,20a132.19286,132.19286 0 0 0 9,17s9,-4 9,-21l51,-73l-4,-60l-42,6z" />
        <path id="svg_29" fill="#d0cde1" d="m567.497131,119.755534s-14,14 -8,36s11,39 11,39s24,-18 44,-7c0,0 -3,-65 -20,-71s-27,3 -27,3z" />
        <path id="svg_30" fill="#2f2e41" d="m556.981131,23.162014s-9.47146,-20.5215 -27.6251,-15.78577s-28.41439,11.83933 -29.20368,18.94293s0.39464,17.759 0.39464,17.759s1.97322,-14.60184 14.60184,-11.44468s32.36084,0.78929 32.36084,0.78929l3.15715,28.41439s5.38385,-5.73878 9.33029,-2.58163s9.61266,-29.77922 -3.01598,-36.09353z" />
        <path id="svg_31" fill="#3f3d56" d="m400.155251,246.177604l0,0l18.457,-4.27462a4.02745,4.02745 0 0 1 4.53638,2.17422l18.90626,39.206a3.255,3.255 0 0 1 -2.04236,4.545l-18.7574,5.32921a4.30027,4.30027 0 0 1 -5.125,-2.4361l-12.06363,-28.02093l-0.36753,0.2036l-2.29605,-5.3088l0.38167,-0.19511l-3.36746,-7.82165a2.47967,2.47967 0 0 1 1.73812,-3.40082z" />
        <path id="svg_32" fill="#2b2946" d="m416.388971,243.357464l2.15449,-0.499a2.78328,2.78328 0 0 1 3.1433,1.52l18.45377,38.95521a1.72462,1.72462 0 0 1 -1.0604,2.38946l-18.62551,5.61964a2.23355,2.23355 0 0 1 -2.69733,-1.25664l-17.45986,-40.63778a1.9563,1.9563 0 0 1 1.356,-2.67811l2.04387,-0.47336a0.92326,0.92326 0 0 1 1.02269,0.46447l0,0a0.81507,0.81507 0 0 0 0.90286,0.41005l9.703,-2.2472a1.39328,1.39328 0 0 0 1.06311,-1.56669l0.00001,-0.00005z" />
        <path id="svg_33" d="m536.335357,273.215863" opacity="0.5" stroke-width="1.5" stroke="#000" fill="#fff" />
        <path id="svg_40" fill="#3f3d56" d="m167.334224,632.92217s-13,-32 26,-56l-26,56z" />
        <path id="svg_41" fill="#3f3d56" d="m163.013002,635.675075s-5.91642,-34.02934 -51.7085,-33.73768l51.7085,33.73768z" />
        <path stroke="null" id="svg_42" fill="#3f3d56" d="m166.408293,641.255589s-17.629673,-31.047609 35.259346,-54.333316l-35.259346,54.333316z" />
    </g>
</svg>