<svg xmlns="http://www.w3.org/2000/svg" viewBox="0 0 180 180" preserveAspectRatio="none" data-name="Layer 1">
    <path fill="#9EF0F0" d="M45.6,-68.9C54.7,-56.2,54.7,-37,60.6,-19.5C66.5,-2.1,78.3,13.6,74.5,23.9C70.8,34.3,51.5,39.3,36.5,40.7C21.5,42.2,10.7,40.1,-2.2,43.1C-15.1,46.1,-30.2,54.3,-39.1,50.8C-48,47.4,-50.6,32.3,-54.3,18.3C-58.1,4.2,-62.9,-8.9,-60.2,-20.2C-57.4,-31.5,-47,-40.9,-35.7,-53C-24.4,-65.1,-12.2,-79.8,3,-83.9C18.2,-88.1,36.5,-81.7,45.6,-68.9Z" transform="translate(100 100)" />
</svg>