<svg xmlns="http://www.w3.org/2000/svg" data-name="Layer 1">
    <path class="human__pants" d="M302.11939,468.96116,295.43121,626.97l-4.18011,71.0622s9.1963,15.04845-4.18011,16.72049-38.45717-2.50807-35.11309-10.86834,5.85216-8.36028,5.85216-8.36028l3.34408-80.25844-25.08077-98.651L204.3044,622.7899l-6.68817,76.07827s9.19629,11.70437,0,14.21243-33.441,2.50807-32.605-5.01613,4.18014-7.52425,4.18014-7.52425l-4.18014-220.71069,12.54039-19.22859Z" transform="translate(0 -129.23361)" fill="#2f2e41" />
    <path class="human__shoe" d="M283.72685,709.73651l3.34409,20.90066s19.22856,40.12922-7.52426,40.12922-19.22856-15.88447-19.22856-15.88447l2.50807-45.14541Z" transform="translate(0 -129.23361)" fill="#2f2e41" />
    <path class="human__shoe" d="M170.02736,709.73651l-3.34409,20.90066s-19.22858,40.12922,7.52423,40.12922,19.22859-15.88447,19.22859-15.88447L190.928,709.73651Z" transform="translate(0 -129.23361)" fill="#2f2e41" />
    <path d="M255.302,232.366s8.36028,30.09694,10.03232,30.09694-15.88447,23.40871-15.88447,23.40871L223.533,300.084l-9.1963-38.45717s8.36028-20.90065,6.68818-31.769Z" transform="translate(0 -129.23361)" fill="#ffb9b9" />
    <circle cx="130.2366" cy="83.90376" r="30.93295" fill="#ffb9b9" transform="translate(112 0)" />
    <path class="human__tshirt" d="M237.74542,277.5113l24.71532-21.46376,14.57788,7.25129,31.769,20.06461s-8.36028,180.58151-4.18011,187.26974c0,0-9.1963,20.90063-63.53795,8.36024S172.53548,464.781,172.53548,464.781l11.70437-110.35538-14.21249-69.39008,47.73977-33.38323,14.96216,25.859Z" transform="translate(0 -129.23361)" fill="#575a89" />
    <path d="M155.81493,341.04927l-7.52422,35.11306v71.06218s10.86834,45.1454,19.22859,33.441,8.1876-15.41073,8.1876-15.41073l-10.69567-16.35824,5.01613-66.882,13.32846-31.9047Z" transform="translate(0 -129.23361)" fill="#ffb9b9" />
    <path d="M295.72077,359.72141l8.88036,34.95953-4.11579,70.32019-12.829,15.65674s-.67491,3.83858,6.02436,17.11265,23.61189-32.348,23.61189-32.348l9.65787-74.02572L324.2616,353.846Z" transform="translate(0 -129.23361)" fill="#ffb9b9" />
    <path d="M212.6647,182.20442s10.03227-21.73666,29.26088-16.72053,30.097,12.54038,30.93293,20.0646-.418,18.8106-.418,18.8106-2.09008-15.46647-15.46648-12.12238-34.27707.836-34.27707.836l-3.34409,30.09695s-3.76213-5.43416-7.94224-2.09007S199.28827,188.89263,212.6647,182.20442Z" transform="translate(0 -129.23361)" fill="#2f2e41" />
    <path class="human__tshirt" d="M189.256,283.36351l-19.22859,1.672s-21.73665,59.35782-19.22859,61.02986,32.605,11.70437,36.78514,9.19627S189.256,283.36351,189.256,283.36351Z" transform="translate(0 -129.23361)" fill="#575a89" />
    <path class="human__tshirt" d="M302.11939,285.03554l6.68823-1.67206s12.54038,15.88449,16.72049,34.277,10.03232,36.78513,6.68818,36.78513-43.794,10.87569-43.794,10.87569Z" transform="translate(0 -129.23361)" fill="#575a89" />
</svg>